<svg width="606" height="240" viewBox="0 0 606 240" fill="none" xmlns="http://www.w3.org/2000/svg">
<path d="M570.096 224.002C568.054 224.002 566.779 222.782 566.268 220.344C565.758 217.499 565.248 214.044 564.737 209.979C564.227 205.712 563.802 201.342 563.462 196.872L559.634 184.373V120.663C559.634 114.973 558.784 111.112 557.083 109.08C555.552 106.844 552.575 105.726 548.153 105.726C540.158 105.726 536.501 110.299 537.181 119.444C537.522 122.492 536.331 124.016 533.609 124.016H500.185C497.973 124.016 496.698 122.492 496.358 119.444C495.167 102.373 499.079 89.5702 508.094 81.0349C517.11 72.4995 531.058 68.2319 549.939 68.2319C569.16 68.2319 583.023 72.6012 591.528 81.3397C600.033 89.875 604.286 103.897 604.286 123.407V184.069C604.286 190.572 604.371 196.668 604.541 202.359C604.711 207.846 604.966 213.434 605.306 219.124C605.646 222.376 604.541 224.002 601.989 224.002H570.096ZM523.148 227.355C512.942 227.355 504.948 223.595 499.164 216.076C493.551 208.557 490.744 197.989 490.744 184.373C490.744 174.009 492.275 165.575 495.337 159.072C498.569 152.366 503.842 147.184 511.156 143.526C518.47 139.664 528.336 137.023 540.753 135.6L562.951 132.857L562.696 158.463L549.173 159.987C543.22 160.8 539.053 162.527 536.671 165.169C534.29 167.811 533.099 171.774 533.099 177.057C533.099 181.528 533.779 184.78 535.14 186.812C536.501 188.641 538.712 189.556 541.774 189.556C545.686 189.556 549.343 188.235 552.745 185.593C556.318 182.748 560.06 178.48 563.972 172.79L567.289 199.005C561.165 206.525 554.787 213.129 548.153 218.82C541.519 224.51 533.184 227.355 523.148 227.355Z" fill="#FD618D"/>
<path d="M434.641 224.002C432.26 224.002 431.069 222.478 431.069 219.429V76.1576C431.069 73.1092 432.26 71.5851 434.641 71.5851H472.148C474.53 71.5851 475.72 73.1092 475.72 76.1576V219.429C475.72 222.478 474.53 224.002 472.148 224.002H434.641ZM453.267 56.3434C445.953 56.3434 440.17 54.108 435.917 49.6371C431.665 45.1662 429.538 39.2727 429.538 31.9567V24.9456C429.538 17.0199 431.665 11.0249 435.917 6.96041C440.17 2.69274 445.953 0.558907 453.267 0.558907C460.752 0.558907 466.535 2.69274 470.617 6.96041C474.7 11.0249 476.741 17.0199 476.741 24.9456V31.9567C476.741 39.2727 474.7 45.1662 470.617 49.6371C466.535 54.108 460.752 56.3434 453.267 56.3434Z" fill="#FD618D"/>
<path d="M369.818 224.002C367.266 224.002 365.99 222.478 365.99 219.429V129.199C365.99 123.915 365.225 120.054 363.694 117.615C362.163 115.176 359.441 113.957 355.529 113.957C351.447 113.957 347.449 115.379 343.537 118.225C339.795 121.07 336.648 124.22 334.097 127.674L329.759 98.1056C333.161 93.4314 337.073 88.8589 341.496 84.388C345.919 79.7139 351.022 75.8527 356.805 72.8044C362.758 69.756 369.392 68.2319 376.707 68.2319C388.103 68.2319 396.608 72.0931 402.221 79.8155C407.835 87.3348 410.641 99.5281 410.641 116.396V219.429C410.641 222.478 409.451 224.002 407.069 224.002H369.818ZM297.355 224.002C294.804 224.002 293.528 222.478 293.528 219.429V111.518C293.528 105.015 293.358 98.9184 293.018 93.2282C292.848 87.3348 292.592 81.7462 292.252 76.4624C291.912 73.2108 293.103 71.5851 295.824 71.5851H327.718C329.759 71.5851 331.035 72.8044 331.545 75.243C332.055 78.4946 332.481 82.2542 332.821 86.5219C333.331 90.5863 333.671 94.6508 333.841 98.7152L338.179 117.615V219.429C338.179 222.478 336.903 224.002 334.352 224.002H297.355Z" fill="#FD618D"/>
<path d="M215.65 227.355C196.939 227.355 182.14 221.969 171.254 211.199C160.538 200.428 155.179 184.475 155.179 163.34V131.942C155.179 111.01 160.538 95.1588 171.254 84.388C182.14 73.6173 196.939 68.2319 215.65 68.2319C234.361 68.2319 249.074 73.6173 259.791 84.388C270.677 95.1588 276.12 111.01 276.12 131.942V163.34C276.12 184.475 270.762 200.428 260.046 211.199C249.329 221.969 234.531 227.355 215.65 227.355ZM215.65 182.544C221.093 182.544 225.09 180.817 227.642 177.362C230.193 173.907 231.469 167.912 231.469 159.377V136.21C231.469 127.674 230.193 121.679 227.642 118.225C225.09 114.77 221.093 113.042 215.65 113.042C210.377 113.042 206.379 114.77 203.658 118.225C201.106 121.679 199.83 127.674 199.83 136.21V159.377C199.83 167.912 201.106 173.907 203.658 177.362C206.379 180.817 210.377 182.544 215.65 182.544Z" fill="#FD618D"/>
<path d="M74.8871 227.355C51.9237 227.355 35.339 222.173 25.133 211.808C15.0972 201.444 10.9297 185.288 12.6307 163.34C12.9709 160.292 14.3317 158.767 16.7131 158.767H54.4752C56.8566 158.767 57.9622 160.19 57.7921 163.035C57.4519 168.319 58.7277 172.586 61.6194 175.838C64.6811 179.09 69.3589 180.715 75.6525 180.715C82.1163 180.715 86.709 179.902 89.4306 178.277C92.3223 176.448 93.7681 173.399 93.7681 169.132C93.7681 167.303 93.3429 165.677 92.4924 164.254C91.6419 162.629 90.2811 161.003 88.41 159.377C86.709 157.751 84.2426 156.125 81.0107 154.5L47.0759 135.295C38.5709 130.418 31.852 125.236 26.9191 119.749C22.1563 114.262 18.7543 108.063 16.7131 101.154C14.842 94.0411 13.9065 85.9122 13.9065 76.7672C14.0766 59.0869 19.0095 45.3694 28.7051 35.6147C38.5709 25.8601 53.5396 20.9827 73.6114 20.9827C96.0645 20.9827 112.564 26.1649 123.11 36.5292C133.656 46.6903 138.164 62.1352 136.633 82.8639C136.293 86.3186 135.017 88.046 132.806 88.046H94.7887C93.598 88.046 92.6625 87.6396 91.9821 86.8267C91.3017 85.8106 91.0465 84.4897 91.2166 82.8639C91.5568 78.5962 90.2811 74.8366 87.3894 71.5851C84.6678 68.1303 80.5004 66.4029 74.8871 66.4029C69.9542 66.4029 66.212 67.419 63.6605 69.4512C61.2792 71.4834 60.0885 74.5318 60.0885 78.5962C60.0885 80.4252 60.5137 82.1526 61.3642 83.7784C62.2147 85.4042 63.5755 87.0299 65.4466 88.6557C67.3177 90.0783 69.7841 91.6024 72.8459 93.2282L106.526 112.128C115.201 117.005 121.92 122.187 126.682 127.674C131.615 133.161 135.102 139.36 137.143 146.269C139.185 153.179 140.12 161.308 139.95 170.656C139.78 189.555 134.592 203.781 124.386 213.332C114.18 222.681 97.6804 227.355 74.8871 227.355Z" fill="#FD618D"/>
<path d="M557.083 228.717C555.075 228.717 553.82 227.522 553.318 225.132C552.816 222.343 552.314 218.957 551.812 214.973C551.311 210.79 550.892 206.507 550.558 202.125L546.793 189.874V127.427C546.793 121.849 545.956 118.065 544.283 116.073C542.777 113.881 539.849 112.786 535.498 112.786C527.634 112.786 524.036 117.268 524.705 126.232C525.04 129.219 523.869 130.713 521.192 130.713H488.312C486.136 130.713 484.882 129.219 484.547 126.232C483.376 109.499 487.224 96.9499 496.092 88.5837C504.961 80.2175 518.682 76.0344 537.255 76.0344C556.163 76.0344 569.8 80.3171 578.167 88.8825C586.533 97.2487 590.716 110.993 590.716 130.116V189.575C590.716 195.95 590.8 201.926 590.967 207.503C591.134 212.881 591.385 218.359 591.72 223.937C592.055 227.124 590.967 228.717 588.457 228.717H557.083ZM510.901 232.004C500.861 232.004 492.997 228.319 487.308 220.949C481.786 213.578 479.025 203.22 479.025 189.874C479.025 179.715 480.531 171.449 483.543 165.075C486.722 158.501 491.909 153.422 499.104 149.836C506.299 146.051 516.004 143.462 528.219 142.067L550.056 139.378L549.805 164.477L536.502 165.971C530.646 166.768 526.546 168.461 524.203 171.05C521.861 173.64 520.69 177.524 520.69 182.703C520.69 187.086 521.359 190.273 522.698 192.265C524.036 194.057 526.211 194.954 529.223 194.954C533.072 194.954 536.669 193.659 540.016 191.069C543.53 188.281 547.211 184.098 551.06 178.52L554.322 204.216C548.299 211.587 542.024 218.06 535.498 223.638C528.972 229.215 520.773 232.004 510.901 232.004Z" fill="#FDFB94"/>
<path d="M423.836 228.717C421.494 228.717 420.323 227.223 420.323 224.235V83.803C420.323 80.8151 421.494 79.3212 423.836 79.3212H460.732C463.075 79.3212 464.246 80.8151 464.246 83.803V224.235C464.246 227.223 463.075 228.717 460.732 228.717H423.836ZM442.159 64.3815C434.964 64.3815 429.275 62.1904 425.091 57.8081C420.908 53.4258 418.817 47.6492 418.817 40.4781V33.6059C418.817 25.8373 420.908 19.9611 425.091 15.9772C429.275 11.7941 434.964 9.70254 442.159 9.70254C449.521 9.70254 455.21 11.7941 459.226 15.9772C463.242 19.9611 465.25 25.8373 465.25 33.6059V40.4781C465.25 47.6492 463.242 53.4258 459.226 57.8081C455.21 62.1904 449.521 64.3815 442.159 64.3815Z" fill="#FDFB94"/>
<path d="M360.069 228.717C357.559 228.717 356.304 227.223 356.304 224.235V135.793C356.304 130.614 355.551 126.829 354.045 124.439C352.539 122.048 349.862 120.853 346.013 120.853C341.998 120.853 338.065 122.248 334.217 125.036C330.536 127.825 327.44 130.913 324.93 134.299L320.663 105.316C324.01 100.735 327.858 96.2527 332.209 91.8704C336.559 87.2889 341.579 83.5042 347.268 80.5163C353.125 77.5284 359.651 76.0344 366.846 76.0344C378.057 76.0344 386.423 79.8191 391.945 87.3885C397.467 94.7587 400.228 106.71 400.228 123.244V224.235C400.228 227.223 399.056 228.717 396.714 228.717H360.069ZM288.788 228.717C286.278 228.717 285.023 227.223 285.023 224.235V118.463C285.023 112.089 284.855 106.113 284.521 100.535C284.353 94.7587 284.102 89.2809 283.768 84.1018C283.433 80.9147 284.604 79.3211 287.282 79.3211H318.655C320.663 79.3211 321.918 80.5163 322.42 82.9066C322.922 86.0937 323.341 89.7788 323.675 93.9619C324.177 97.9458 324.512 101.93 324.679 105.914L328.946 124.439V224.235C328.946 227.223 327.691 228.717 325.181 228.717H288.788Z" fill="#FDFB94"/>
<path d="M208.413 232.004C190.007 232.004 175.45 226.725 164.741 216.168C154.199 205.611 148.929 189.974 148.929 169.258V138.482C148.929 117.965 154.199 102.428 164.741 91.8704C175.45 81.3131 190.007 76.0344 208.413 76.0344C226.819 76.0344 241.293 81.3131 251.835 91.8704C262.544 102.428 267.898 117.965 267.898 138.482V169.258C267.898 189.974 262.628 205.611 252.086 216.168C241.544 226.725 226.987 232.004 208.413 232.004ZM208.413 188.082C213.768 188.082 217.7 186.388 220.21 183.002C222.72 179.616 223.975 173.739 223.975 165.373V142.665C223.975 134.299 222.72 128.423 220.21 125.036C217.7 121.65 213.768 119.957 208.413 119.957C203.226 119.957 199.294 121.65 196.617 125.036C194.107 128.423 192.852 134.299 192.852 142.665V165.373C192.852 173.739 194.107 179.616 196.617 183.002C199.294 186.388 203.226 188.082 208.413 188.082Z" fill="#FDFB94"/>
<path d="M69.9449 232.004C47.3557 232.004 31.0412 226.925 21.0016 216.766C11.1293 206.607 7.02976 190.771 8.70303 169.258C9.03769 166.27 10.3763 164.776 12.7189 164.776H49.8656C52.2082 164.776 53.2958 166.17 53.1285 168.959C52.7938 174.138 54.0488 178.321 56.8933 181.508C59.9052 184.695 64.5067 186.289 70.6978 186.289C77.0563 186.289 81.5741 185.492 84.2514 183.898C87.0959 182.106 88.5182 179.118 88.5182 174.935C88.5182 173.142 88.0999 171.548 87.2633 170.154C86.4266 168.56 85.088 166.967 83.2474 165.373C81.5741 163.78 79.1479 162.186 75.9687 160.593L42.5868 141.769C34.2205 136.988 27.611 131.909 22.7585 126.53C18.0734 121.152 14.7268 115.077 12.7189 108.304C10.8783 101.332 9.95799 93.3644 9.95799 84.4006C10.1253 67.0707 14.9778 53.625 24.5155 44.0637C34.2205 34.5023 48.9453 29.7216 68.6899 29.7216C90.7771 29.7216 107.008 34.8011 117.382 44.96C127.756 54.9198 132.191 70.0586 130.685 90.3765C130.35 93.7628 129.095 95.4559 126.92 95.4559H89.5222C88.3509 95.4559 87.4306 95.0576 86.7613 94.2608C86.092 93.2648 85.841 91.97 86.0083 90.3765C86.3429 86.1934 85.088 82.5083 82.2434 79.3212C79.5662 75.9348 75.4667 74.2417 69.9449 74.2417C65.0924 74.2417 61.4112 75.2377 58.9013 77.2296C56.5587 79.2216 55.3874 82.2095 55.3874 86.1934C55.3874 87.9861 55.8057 89.6793 56.6423 91.2729C57.479 92.8664 58.8176 94.46 60.6582 96.0535C62.4988 97.4479 64.925 98.9419 67.9369 100.535L101.068 119.061C109.601 123.841 116.211 128.921 120.896 134.299C125.749 139.677 129.179 145.753 131.187 152.525C133.195 159.298 134.115 167.266 133.948 176.429C133.78 194.954 128.677 208.897 118.637 218.26C108.597 227.423 92.3667 232.004 69.9449 232.004Z" fill="#FDFB94"/>
<path fill-rule="evenodd" clip-rule="evenodd" d="M553.318 225.132C553.82 227.522 555.075 228.717 557.083 228.717H588.457C590.967 228.717 592.055 227.124 591.72 223.937C591.385 218.359 591.134 212.881 590.967 207.503C590.8 201.926 590.716 195.95 590.716 189.575V130.116C590.716 110.993 586.533 97.2486 578.166 88.8825C569.8 80.3171 556.163 76.0344 537.255 76.0344C518.682 76.0344 504.961 80.2175 496.092 88.5837C487.224 96.9499 483.376 109.499 484.547 126.232C484.881 129.219 486.136 130.713 488.312 130.713H521.191C523.869 130.713 525.04 129.219 524.705 126.232C524.036 117.268 527.634 112.786 535.498 112.786C539.849 112.786 542.777 113.881 544.283 116.073C545.956 118.065 546.793 121.849 546.793 127.427V139.78L528.219 142.067C516.004 143.462 506.299 146.051 499.104 149.836C491.909 153.422 486.722 158.501 483.543 165.075C480.531 171.449 479.025 179.715 479.025 189.874C479.025 203.22 481.786 213.578 487.308 220.949C492.997 228.319 500.861 232.004 510.901 232.004C520.773 232.004 528.972 229.215 535.498 223.638C540.415 219.436 545.189 214.725 549.821 209.505C550.238 209.034 550.655 208.56 551.07 208.081C551.135 208.765 551.203 209.447 551.273 210.126C551.44 211.756 551.62 213.372 551.812 214.973C552.314 218.957 552.816 222.343 553.318 225.132ZM546.793 164.815L536.502 165.971C530.646 166.768 526.546 168.461 524.203 171.05C521.861 173.64 520.69 177.524 520.69 182.703C520.69 187.086 521.359 190.273 522.697 192.265C524.036 194.057 526.211 194.954 529.223 194.954C533.072 194.954 536.669 193.659 540.016 191.069C541.773 189.675 543.572 187.931 545.413 185.839C545.871 185.32 546.33 184.779 546.793 184.216V164.815ZM545.413 183.542V166.619L536.659 167.602C536.654 167.603 536.649 167.603 536.645 167.604C530.874 168.391 527.15 170.033 525.142 172.253C523.17 174.432 522.069 177.81 522.069 182.703C522.069 186.924 522.719 189.644 523.752 191.205C524.726 192.486 526.431 193.312 529.223 193.312C532.792 193.312 536.128 192.118 539.258 189.698C541.234 188.128 543.287 186.081 545.413 183.542ZM550.03 211.524C545.586 216.464 541.011 220.947 536.302 224.971C529.493 230.791 520.995 233.646 510.901 233.646C500.557 233.646 492.293 229.833 486.292 222.06L486.285 222.051L486.279 222.041C480.462 214.278 477.646 203.48 477.646 189.874C477.646 179.538 479.176 170.967 482.341 164.27L482.348 164.255C485.707 157.309 491.156 152.02 498.559 148.328C505.941 144.448 515.802 141.836 528.082 140.434C528.084 140.434 528.086 140.433 528.088 140.433L545.413 138.3V127.427C545.413 121.913 544.563 118.728 543.308 117.233L543.259 117.176L543.215 117.112C542.123 115.522 539.756 114.428 535.498 114.428C531.752 114.428 529.33 115.499 527.899 117.281C526.484 119.044 525.767 121.843 526.076 126.052C526.265 127.782 526.06 129.471 525.086 130.713C524.124 131.94 522.702 132.355 521.191 132.355H488.312C486.946 132.355 485.706 131.875 484.764 130.754C483.848 129.663 483.371 128.152 483.18 126.448L483.175 126.408L483.172 126.368C481.974 109.241 485.915 96.09 495.236 87.297C504.461 78.5943 518.555 74.3927 537.255 74.3927C556.272 74.3927 570.315 78.6852 579.058 87.6296C587.857 96.4323 592.095 110.745 592.095 130.116V189.575C592.095 195.932 592.179 201.887 592.345 207.442C592.511 212.788 592.761 218.233 593.093 223.778C593.274 225.555 593.104 227.27 592.226 228.557C591.317 229.888 589.932 230.359 588.457 230.359H557.083C555.846 230.359 554.702 229.987 553.775 229.103C552.851 228.223 552.283 226.973 551.98 225.53L551.975 225.503L551.97 225.476C551.46 222.643 550.953 219.221 550.449 215.216L550.447 215.205C550.301 213.986 550.162 212.759 550.03 211.524Z" fill="#727272" fill-opacity="0.6"/>
<path fill-rule="evenodd" clip-rule="evenodd" d="M420.193 228.717C419.279 227.551 418.944 225.955 418.944 224.235V83.803C418.944 82.0831 419.279 80.4874 420.193 79.3214C421.124 78.1341 422.427 77.6794 423.836 77.6794H460.732C462.141 77.6794 463.445 78.1341 464.376 79.3214C465.29 80.4874 465.625 82.0831 465.625 83.803V224.235C465.625 225.955 465.29 227.551 464.376 228.717C463.445 229.904 462.141 230.359 460.732 230.359H423.836C422.427 230.359 421.124 229.904 420.193 228.717ZM442.159 66.0232C434.728 66.0232 428.682 63.7559 424.18 59.0405C419.674 54.3192 417.438 48.0778 417.438 40.4781V33.6059C417.438 25.4665 419.644 19.0707 424.217 14.7074C428.717 10.215 434.75 8.06079 442.159 8.06079C449.721 8.06079 455.774 10.2077 460.122 14.7284C464.52 19.0994 466.629 25.4895 466.629 33.6059V40.4781C466.629 48.0552 464.491 54.2902 460.158 59.0183C455.81 63.7633 449.743 66.0232 442.159 66.0232ZM425.091 15.9772C420.908 19.961 418.817 25.8373 418.817 33.6059V40.4781C418.817 47.6491 420.908 53.4258 425.091 57.8081C429.275 62.1904 434.964 64.3815 442.159 64.3815C449.521 64.3815 455.21 62.1904 459.226 57.8081C463.242 53.4258 465.25 47.6491 465.25 40.4781V33.6059C465.25 25.8373 463.242 19.961 459.226 15.9772C455.21 11.7941 449.521 9.70251 442.159 9.70251C434.964 9.70251 429.275 11.7941 425.091 15.9772ZM420.323 224.235C420.323 227.223 421.494 228.717 423.836 228.717H460.732C463.075 228.717 464.246 227.223 464.246 224.235V83.803C464.246 80.8151 463.075 79.3211 460.732 79.3211H423.836C421.494 79.3211 420.323 80.8151 420.323 83.803V224.235Z" fill="#727272" fill-opacity="0.6"/>
<path fill-rule="evenodd" clip-rule="evenodd" d="M356.304 224.235C356.304 227.223 357.559 228.717 360.069 228.717H396.714C399.056 228.717 400.228 227.223 400.228 224.235V123.244C400.228 106.71 397.467 94.7587 391.945 87.3885C386.423 79.8191 378.057 76.0344 366.846 76.0344C359.651 76.0344 353.125 77.5284 347.269 80.5163C341.579 83.5042 336.56 87.2889 332.209 91.8704C329.864 94.2324 327.665 96.6234 325.612 99.0433C325.186 99.5452 324.766 100.048 324.353 100.553C324.297 99.8475 324.236 99.1424 324.169 98.4373C324.028 96.9455 323.863 95.4537 323.675 93.9619C323.341 89.7788 322.922 86.0937 322.42 82.9066C321.918 80.5163 320.663 79.3211 318.656 79.3211H287.282C284.604 79.3211 283.433 80.9147 283.768 84.1018C284.102 89.2808 284.353 94.7587 284.521 100.535C284.855 106.113 285.023 112.089 285.023 118.463V224.235C285.023 227.223 286.278 228.717 288.788 228.717H325.181C327.691 228.717 328.946 227.223 328.946 224.235V129.632C329.393 129.181 329.853 128.736 330.325 128.297C331.54 127.168 332.837 126.081 334.217 125.036C338.066 122.248 341.998 120.853 346.014 120.853C349.862 120.853 352.539 122.048 354.045 124.439C355.551 126.829 356.304 130.614 356.304 135.793V224.235ZM334.946 126.43C333.277 127.695 331.738 129.019 330.325 130.4V224.235C330.325 225.982 329.957 227.594 328.98 228.758C328.003 229.921 326.649 230.359 325.181 230.359H288.788C287.32 230.359 285.966 229.921 284.989 228.758C284.011 227.594 283.644 225.982 283.644 224.235V118.463C283.644 112.122 283.477 106.186 283.145 100.652L283.143 100.622L283.143 100.592C282.976 94.8498 282.727 89.4076 282.395 84.265C282.211 82.4618 282.41 80.7235 283.357 79.4352C284.314 78.1339 285.748 77.6794 287.282 77.6794H318.656C319.893 77.6794 321.036 78.0519 321.964 78.9355C322.888 79.815 323.455 81.0656 323.758 82.5084L323.768 82.5559L323.776 82.6041C324.286 85.8403 324.708 89.5615 325.045 93.7623C325.179 94.8337 325.302 95.9052 325.413 96.9767C327.266 94.8361 329.231 92.7202 331.307 90.6288C335.768 85.9329 340.907 82.0631 346.712 79.0142L346.725 79.0072C352.774 75.9212 359.488 74.3927 366.846 74.3927C378.313 74.3927 387.118 78.2724 392.981 86.3056C398.833 94.1233 401.607 106.567 401.607 123.244V224.235C401.607 225.955 401.271 227.551 400.357 228.717C399.426 229.904 398.123 230.359 396.714 230.359H360.069C358.602 230.359 357.248 229.921 356.27 228.758C355.293 227.594 354.925 225.982 354.925 224.235V135.793C354.925 130.736 354.179 127.388 352.942 125.424C351.812 123.63 349.666 122.495 346.014 122.495C342.284 122.495 338.601 123.784 334.946 126.43Z" fill="#727272" fill-opacity="0.6"/>
<path fill-rule="evenodd" clip-rule="evenodd" d="M164.741 216.168C175.45 226.725 190.008 232.004 208.414 232.004C226.987 232.004 241.544 226.725 252.086 216.168C262.628 205.611 267.898 189.974 267.898 169.258V138.482C267.898 117.965 262.544 102.428 251.835 91.8704C241.293 81.313 226.82 76.0344 208.414 76.0344C190.008 76.0344 175.45 81.313 164.741 91.8704C154.199 102.428 148.929 117.965 148.929 138.482V169.258C148.929 189.974 154.199 205.611 164.741 216.168ZM252.719 90.61C241.856 79.7336 227.032 74.3927 208.414 74.3927C189.791 74.3927 174.888 79.7355 163.861 90.6059L163.853 90.6141C152.924 101.559 147.55 117.613 147.55 138.482V169.258C147.55 190.32 152.921 206.476 163.853 217.424L163.862 217.432C174.888 228.303 189.791 233.646 208.414 233.646C227.198 233.646 242.109 228.306 252.974 217.424C263.906 206.476 269.278 190.32 269.278 169.258V138.482C269.278 117.607 263.816 101.553 252.719 90.61ZM220.21 183.002C217.7 186.388 213.768 188.082 208.414 188.082C203.226 188.082 199.294 186.388 196.617 183.002C194.107 179.616 192.852 173.739 192.852 165.373V142.665C192.852 134.299 194.107 128.423 196.617 125.036C199.294 121.65 203.226 119.957 208.414 119.957C213.768 119.957 217.7 121.65 220.21 125.036C222.72 128.423 223.975 134.299 223.975 142.665V165.373C223.975 173.739 222.72 179.616 220.21 183.002ZM197.637 126.142C199.976 123.196 203.487 121.599 208.414 121.599C213.54 121.599 217.022 123.216 219.176 126.123C221.339 129.041 222.596 134.397 222.596 142.665V165.373C222.596 173.641 221.339 178.997 219.176 181.916C217.022 184.822 213.54 186.44 208.414 186.44C203.487 186.44 199.976 184.842 197.637 181.896C195.482 178.973 194.231 173.623 194.231 165.373V142.665C194.231 134.416 195.482 129.065 197.637 126.142Z" fill="#727272" fill-opacity="0.6"/>
<path fill-rule="evenodd" clip-rule="evenodd" d="M21.0016 216.766C31.0413 226.925 47.3557 232.004 69.9449 232.004C92.3668 232.004 108.598 227.423 118.637 218.26C128.677 208.897 133.78 194.954 133.948 176.429C134.115 167.266 133.195 159.298 131.187 152.525C129.179 145.753 125.749 139.677 120.896 134.299C116.211 128.921 109.601 123.841 101.068 119.06L67.937 100.535C64.9251 98.9418 62.4988 97.4478 60.6582 96.0535C58.8176 94.4599 57.479 92.8664 56.6424 91.2728C55.8057 89.6792 55.3874 87.9861 55.3874 86.1933C55.3874 82.2094 56.5587 79.2215 58.9013 77.2296C61.4112 75.2376 65.0924 74.2416 69.9449 74.2416C75.4667 74.2416 79.5662 75.9348 82.2435 79.3211C85.088 82.5082 86.343 86.1933 86.0083 90.3764C85.841 91.97 86.092 93.2647 86.7613 94.2607C87.4306 95.0575 88.3509 95.4559 89.5222 95.4559H126.92C129.095 95.4559 130.35 93.7627 130.685 90.3764C132.191 70.0585 127.757 54.9197 117.382 44.96C107.008 34.8011 90.7772 29.7216 68.6899 29.7216C48.9453 29.7216 34.2205 34.5023 24.5155 44.0636C14.9779 53.625 10.1254 67.0706 9.95804 84.4006C9.95804 93.3643 10.8783 101.332 12.7189 108.304C14.7269 115.077 18.0734 121.152 22.7586 126.53C27.6111 131.909 34.2205 136.988 42.5869 141.769L75.9687 160.593C79.1479 162.186 81.5742 163.78 83.2474 165.373C85.088 166.967 86.4266 168.56 87.2633 170.154C88.0999 171.548 88.5182 173.142 88.5182 174.935C88.5182 179.118 87.096 182.106 84.2514 183.898C81.5742 185.492 77.0563 186.289 70.6979 186.289C64.5068 186.289 59.9053 184.695 56.8934 181.508C54.0488 178.321 52.7938 174.138 53.1285 168.959C53.2958 166.17 52.2082 164.776 49.8656 164.776H12.7189C10.3764 164.776 9.03774 166.27 8.70309 169.258C7.02981 190.771 11.1293 206.607 21.0016 216.766ZM57.8241 180.296C55.3316 177.494 54.1972 173.825 54.5035 169.085L54.5041 169.076C54.6021 167.442 54.3543 165.865 53.4489 164.704C52.5426 163.543 51.2402 163.134 49.8656 163.134H12.7189C11.298 163.134 10.0048 163.594 9.01484 164.698C8.039 165.788 7.52964 167.313 7.33611 169.041L7.33245 169.073L7.32989 169.106C5.63284 190.925 9.77023 207.378 20.0998 218.008L20.1085 218.016C30.5223 228.554 47.2419 233.646 69.9449 233.646C92.4621 233.646 109.071 229.059 119.476 219.562L119.488 219.552C129.928 209.816 135.154 195.353 135.327 176.455C135.496 167.15 134.563 158.979 132.487 151.979C130.399 144.936 126.839 138.645 121.844 133.107C117.014 127.566 110.264 122.398 101.655 117.575L68.5102 99.0421L68.4971 99.0351C65.5399 97.4705 63.1928 96.023 61.4349 94.6958C59.6982 93.1868 58.5184 91.7485 57.8118 90.4027C57.1053 89.0569 56.7665 87.6632 56.7665 86.1933C56.7665 82.6521 57.7789 80.2114 59.6849 78.5808C61.8692 76.8568 65.2269 75.8834 69.9449 75.8834C75.247 75.8834 78.9153 77.5068 81.2392 80.4463L81.2679 80.4825L81.2983 80.5166C83.8653 83.3927 84.9208 86.5881 84.6372 90.1987C84.4417 92.1015 84.73 93.8661 85.6844 95.2863L85.7321 95.3573L85.7861 95.4216C86.7726 96.5959 88.0772 97.0976 89.5222 97.0976H126.92C128.339 97.0976 129.598 96.5256 130.527 95.2722C131.412 94.0772 131.87 92.4342 132.054 90.5682L132.057 90.5445L132.058 90.5207C133.592 69.8352 129.083 54.0871 118.253 43.6866C107.516 33.1768 90.9022 28.0799 68.6899 28.0799C48.7965 28.0799 33.6948 32.8892 23.6363 42.7988L23.6272 42.8078C13.73 52.7297 8.75014 66.6626 8.57906 84.3817L8.57897 84.4006C8.57897 93.495 9.5124 101.634 11.4033 108.796L11.4105 108.823L11.4185 108.85C13.5033 115.882 16.9742 122.171 21.8013 127.712L21.81 127.722L21.8189 127.732C26.8049 133.258 33.5443 138.423 41.9901 143.249L41.9965 143.252L75.4057 162.092L75.4335 162.106C78.5576 163.672 80.8535 165.196 82.3859 166.655L82.4107 166.679L82.4363 166.701C84.1919 168.221 85.3826 169.669 86.0938 171.024L86.1164 171.067L86.1411 171.108C86.8026 172.211 87.1392 173.467 87.1392 174.935C87.1392 176.804 86.8223 178.305 86.2517 179.504C85.6871 180.69 84.8303 181.673 83.6201 182.439C81.249 183.843 77.0179 184.647 70.6979 184.647C64.6812 184.647 60.479 183.095 57.8241 180.296Z" fill="#727272" fill-opacity="0.6"/>
<path d="M553.768 232.001C551.76 232.001 550.505 230.806 550.003 228.415C549.501 225.626 548.999 222.24 548.497 218.256C547.995 214.073 547.577 209.79 547.242 205.408L543.478 193.158V130.71C543.478 125.133 542.641 121.348 540.968 119.356C539.462 117.165 536.534 116.069 532.183 116.069C524.319 116.069 520.721 120.551 521.39 129.515C521.725 132.503 520.554 133.997 517.877 133.997H484.997C482.821 133.997 481.566 132.503 481.232 129.515C480.061 112.783 483.909 100.233 492.777 91.8671C501.646 83.501 515.367 79.3179 533.94 79.3179C552.848 79.3179 566.485 83.6005 574.851 92.1659C583.218 100.532 587.401 114.277 587.401 133.399V192.859C587.401 199.233 587.485 205.209 587.652 210.786C587.819 216.165 588.07 221.643 588.405 227.22C588.74 230.407 587.652 232.001 585.142 232.001H553.768ZM507.586 235.287C497.546 235.287 489.682 231.602 483.993 224.232C478.471 216.862 475.71 206.504 475.71 193.158C475.71 182.999 477.216 174.732 480.228 168.358C483.407 161.785 488.594 156.705 495.789 153.12C502.984 149.335 512.689 146.745 524.904 145.351L546.74 142.662L546.49 167.76L533.187 169.254C527.331 170.051 523.231 171.744 520.888 174.334C518.546 176.923 517.375 180.808 517.375 185.987C517.375 190.369 518.044 193.556 519.382 195.548C520.721 197.341 522.896 198.237 525.908 198.237C529.757 198.237 533.354 196.942 536.701 194.353C540.215 191.564 543.896 187.381 547.744 181.804L551.007 207.5C544.984 214.87 538.709 221.344 532.183 226.921C525.657 232.499 517.458 235.287 507.586 235.287Z" fill="#D5C2E0"/>
<path d="M420.521 232.001C418.179 232.001 417.008 230.507 417.008 227.519V87.0864C417.008 84.0985 418.179 82.6046 420.521 82.6046H457.417C459.76 82.6046 460.931 84.0985 460.931 87.0864V227.519C460.931 230.507 459.76 232.001 457.417 232.001H420.521ZM438.844 67.665C431.649 67.665 425.96 65.4738 421.776 61.0915C417.593 56.7092 415.502 50.9326 415.502 43.7616V36.8893C415.502 29.1207 417.593 23.2445 421.776 19.2606C425.96 15.0775 431.649 12.9859 438.844 12.9859C446.206 12.9859 451.895 15.0775 455.911 19.2606C459.927 23.2445 461.935 29.1207 461.935 36.8893V43.7616C461.935 50.9326 459.927 56.7092 455.911 61.0915C451.895 65.4738 446.206 67.665 438.844 67.665Z" fill="#D5C2E0"/>
<path d="M356.754 232.001C354.244 232.001 352.989 230.507 352.989 227.519V139.076C352.989 133.897 352.236 130.113 350.73 127.722C349.224 125.332 346.547 124.137 342.698 124.137C338.683 124.137 334.75 125.531 330.902 128.32C327.221 131.109 324.125 134.196 321.615 137.582L317.348 108.6C320.695 104.018 324.543 99.5361 328.894 95.1539C333.244 90.5724 338.264 86.7877 343.953 83.7997C349.81 80.8118 356.336 79.3179 363.531 79.3179C374.742 79.3179 383.108 83.1026 388.63 90.672C394.152 98.0422 396.913 109.994 396.913 126.527V227.519C396.913 230.507 395.741 232.001 393.399 232.001H356.754ZM285.473 232.001C282.963 232.001 281.708 230.507 281.708 227.519V121.746C281.708 115.372 281.54 109.396 281.206 103.819C281.038 98.0422 280.787 92.5643 280.453 87.3853C280.118 84.1981 281.289 82.6046 283.967 82.6046H315.34C317.348 82.6046 318.603 83.7997 319.105 86.1901C319.607 89.3772 320.026 93.0623 320.36 97.2454C320.862 101.229 321.197 105.213 321.364 109.197L325.631 127.722V227.519C325.631 230.507 324.376 232.001 321.866 232.001H285.473Z" fill="#D5C2E0"/>
<path d="M205.099 235.287C186.693 235.287 172.135 230.009 161.426 219.451C150.884 208.894 145.614 193.257 145.614 172.541V141.765C145.614 121.248 150.884 105.711 161.426 95.1539C172.135 84.5965 186.693 79.3179 205.099 79.3179C223.505 79.3179 237.978 84.5965 248.52 95.1539C259.229 105.711 264.583 121.248 264.583 141.765V172.541C264.583 193.257 259.313 208.894 248.771 219.451C238.229 230.009 223.672 235.287 205.099 235.287ZM205.099 191.365C210.453 191.365 214.385 189.672 216.895 186.285C219.405 182.899 220.66 177.023 220.66 168.657V145.949C220.66 137.582 219.405 131.706 216.895 128.32C214.385 124.933 210.453 123.24 205.099 123.24C199.911 123.24 195.979 124.933 193.302 128.32C190.792 131.706 189.537 137.582 189.537 145.949V168.657C189.537 177.023 190.792 182.899 193.302 186.285C195.979 189.672 199.911 191.365 205.099 191.365Z" fill="#D5C2E0"/>
<path d="M66.6299 235.288C44.0407 235.288 27.7263 230.208 17.6867 220.049C7.81436 209.89 3.71483 194.054 5.38811 172.541C5.72276 169.553 7.06138 168.059 9.40397 168.059H46.5507C48.8932 168.059 49.9809 169.454 49.8135 172.242C49.4789 177.421 50.7338 181.604 53.5784 184.792C56.5903 187.979 61.1918 189.572 67.3829 189.572C73.7414 189.572 78.2592 188.775 80.9364 187.182C83.781 185.389 85.2033 182.401 85.2033 178.218C85.2033 176.425 84.785 174.832 83.9483 173.438C83.1117 171.844 81.7731 170.25 79.9325 168.657C78.2592 167.063 75.8329 165.47 72.6537 163.876L39.2719 145.052C30.9055 140.272 24.2961 135.192 19.4436 129.814C14.7584 124.436 11.4119 118.36 9.40397 111.587C7.56336 104.616 6.64306 96.6478 6.64306 87.6841C6.81039 70.3541 11.6629 56.9084 21.2005 47.3471C30.9055 37.7857 45.6304 33.0051 65.375 33.0051C87.4622 33.0051 103.693 38.0845 114.067 48.2435C124.442 58.2032 128.876 73.342 127.37 93.6599C127.035 97.0462 125.78 98.7394 123.605 98.7394H86.2072C85.0359 98.7394 84.1157 98.341 83.4463 97.5442C82.777 96.5482 82.526 95.2535 82.6934 93.6599C83.028 89.4768 81.7731 85.7917 78.9285 82.6046C76.2513 79.2183 72.1517 77.5251 66.6299 77.5251C61.7774 77.5251 58.0962 78.5211 55.5863 80.5131C53.2438 82.505 52.0725 85.4929 52.0725 89.4768C52.0725 91.2696 52.4908 92.9627 53.3274 94.5563C54.1641 96.1499 55.5027 97.7434 57.3433 99.337C59.1839 100.731 61.6101 102.225 64.622 103.819L97.7528 122.344C106.287 127.125 112.896 132.204 117.581 137.582C122.434 142.961 125.864 149.036 127.872 155.809C129.88 162.581 130.8 170.549 130.633 179.712C130.465 198.237 125.362 212.181 115.322 221.543C105.283 230.706 89.0518 235.288 66.6299 235.288Z" fill="#D5C2E0"/>
<path fill-rule="evenodd" clip-rule="evenodd" d="M550.003 228.415C550.505 230.806 551.76 232.001 553.768 232.001H585.142C587.652 232.001 588.74 230.407 588.405 227.22C588.07 221.643 587.819 216.165 587.652 210.786C587.485 205.209 587.401 199.233 587.401 192.859V133.399C587.401 114.277 583.218 100.532 574.852 92.1659C566.485 83.6006 552.848 79.3179 533.94 79.3179C515.367 79.3179 501.646 83.501 492.777 91.8671C483.909 100.233 480.061 112.783 481.232 129.515C481.567 132.503 482.821 133.997 484.997 133.997H517.877C520.554 133.997 521.725 132.503 521.39 129.515C520.721 120.551 524.319 116.069 532.183 116.069C536.534 116.069 539.462 117.165 540.968 119.356C542.641 121.348 543.478 125.133 543.478 130.71V143.064L524.904 145.351C512.689 146.745 502.984 149.335 495.789 153.12C488.594 156.705 483.407 161.785 480.228 168.358C477.216 174.732 475.71 182.999 475.71 193.158C475.71 206.504 478.471 216.862 483.993 224.232C489.682 231.602 497.546 235.287 507.586 235.287C517.458 235.287 525.657 232.499 532.183 226.921C537.1 222.719 541.874 218.008 546.506 212.788C546.923 212.318 547.34 211.843 547.755 211.364C547.82 212.049 547.888 212.73 547.958 213.41C548.126 215.04 548.305 216.655 548.497 218.256C548.999 222.24 549.501 225.627 550.003 228.415ZM543.478 168.099L533.187 169.254C527.331 170.051 523.231 171.744 520.888 174.334C518.546 176.923 517.375 180.808 517.375 185.987C517.375 190.369 518.044 193.556 519.383 195.548C520.721 197.341 522.896 198.237 525.908 198.237C529.757 198.237 533.354 196.942 536.701 194.353C538.458 192.958 540.257 191.215 542.099 189.122C542.556 188.603 543.015 188.062 543.478 187.5V168.099ZM542.099 186.825V169.903L533.344 170.885C533.339 170.886 533.334 170.887 533.33 170.887C527.559 171.674 523.835 173.317 521.827 175.537C519.856 177.716 518.754 181.093 518.754 185.987C518.754 190.208 519.404 192.927 520.437 194.489C521.411 195.77 523.116 196.596 525.908 196.596C529.477 196.596 532.813 195.401 535.943 192.981C537.919 191.412 539.972 189.364 542.099 186.825ZM546.715 214.808C542.271 219.748 537.696 224.231 532.987 228.255C526.178 234.075 517.68 236.929 507.586 236.929C497.242 236.929 488.978 233.117 482.977 225.343L482.97 225.334L482.964 225.325C477.148 217.562 474.331 206.764 474.331 193.158C474.331 182.821 475.861 174.25 479.026 167.553L479.033 167.539C482.392 160.593 487.841 155.304 495.244 151.611C502.626 147.732 512.487 145.12 524.767 143.717C524.769 143.717 524.771 143.717 524.773 143.717L542.099 141.583V130.71C542.099 125.196 541.248 122.012 539.993 120.517L539.944 120.459L539.9 120.396C538.808 118.806 536.441 117.711 532.183 117.711C528.437 117.711 526.015 118.782 524.584 120.565C523.169 122.328 522.452 125.126 522.762 129.335C522.95 131.066 522.745 132.754 521.771 133.997C520.809 135.223 519.387 135.639 517.877 135.639H484.997C483.631 135.639 482.391 135.159 481.449 134.037C480.533 132.947 480.056 131.435 479.865 129.732L479.86 129.692L479.858 129.651C478.659 112.525 482.6 99.3735 491.921 90.5805C501.146 81.8778 515.24 77.6761 533.94 77.6761C552.957 77.6761 567 81.9687 575.743 90.9131C584.542 99.7157 588.78 114.028 588.78 133.399V192.859C588.78 199.216 588.864 205.171 589.03 210.726C589.196 216.071 589.446 221.516 589.778 227.062C589.959 228.838 589.789 230.554 588.911 231.841C588.003 233.171 586.617 233.642 585.142 233.642H553.768C552.531 233.642 551.387 233.27 550.46 232.386C549.536 231.507 548.969 230.256 548.666 228.813L548.66 228.786L548.655 228.759C548.145 225.927 547.638 222.505 547.134 218.5L547.132 218.488C546.986 217.27 546.847 216.043 546.715 214.808Z" fill="#727272" fill-opacity="0.6"/>
<path fill-rule="evenodd" clip-rule="evenodd" d="M416.878 232C415.964 230.834 415.628 229.239 415.628 227.519V87.0864C415.628 85.3665 415.964 83.7708 416.878 82.6049C417.809 81.4175 419.112 80.9628 420.521 80.9628H457.417C458.826 80.9628 460.13 81.4175 461.061 82.6049C461.975 83.7708 462.31 85.3665 462.31 87.0864V227.519C462.31 229.239 461.975 230.834 461.061 232C460.13 233.188 458.826 233.642 457.417 233.642H420.521C419.112 233.642 417.809 233.188 416.878 232ZM438.844 69.3067C431.413 69.3067 425.366 67.0394 420.865 62.324C416.358 57.6026 414.122 51.3613 414.122 43.7615V36.8893C414.122 28.7499 416.329 22.3541 420.902 17.9908C425.402 13.4984 431.435 11.3442 438.844 11.3442C446.406 11.3442 452.459 13.4911 456.807 18.0118C461.204 22.3828 463.314 28.773 463.314 36.8893V43.7615C463.314 51.3386 461.176 57.5737 456.843 62.3017C452.495 67.0468 446.428 69.3067 438.844 69.3067ZM421.776 19.2606C417.593 23.2445 415.502 29.1207 415.502 36.8893V43.7615C415.502 50.9326 417.593 56.7092 421.776 61.0915C425.96 65.4738 431.649 67.6649 438.844 67.6649C446.206 67.6649 451.895 65.4738 455.911 61.0915C459.927 56.7092 461.935 50.9326 461.935 43.7615V36.8893C461.935 29.1207 459.927 23.2445 455.911 19.2606C451.895 15.0775 446.206 12.9859 438.844 12.9859C431.649 12.9859 425.96 15.0775 421.776 19.2606ZM417.008 227.519C417.008 230.507 418.179 232.001 420.521 232.001H457.417C459.76 232.001 460.931 230.507 460.931 227.519V87.0864C460.931 84.0985 459.76 82.6046 457.417 82.6046H420.521C418.179 82.6046 417.008 84.0985 417.008 87.0864V227.519Z" fill="#727272" fill-opacity="0.6"/>
<path fill-rule="evenodd" clip-rule="evenodd" d="M352.989 227.519C352.989 230.507 354.244 232.001 356.754 232.001H393.399C395.741 232.001 396.913 230.507 396.913 227.519V126.527C396.913 109.994 394.152 98.0422 388.63 90.672C383.108 83.1026 374.742 79.3179 363.531 79.3179C356.336 79.3179 349.81 80.8118 343.953 83.7998C338.264 86.7877 333.245 90.5724 328.894 95.1539C326.549 97.5159 324.35 99.9069 322.297 102.327C321.871 102.829 321.451 103.332 321.038 103.836C320.982 103.131 320.92 102.426 320.854 101.721C320.713 100.229 320.548 98.7372 320.36 97.2454C320.026 93.0623 319.607 89.3772 319.105 86.1901C318.603 83.7998 317.348 82.6046 315.34 82.6046H283.967C281.289 82.6046 280.118 84.1981 280.453 87.3853C280.787 92.5643 281.038 98.0422 281.206 103.819C281.54 109.396 281.708 115.372 281.708 121.746V227.519C281.708 230.507 282.963 232.001 285.473 232.001H321.866C324.376 232.001 325.631 230.507 325.631 227.519V132.916C326.078 132.464 326.538 132.019 327.01 131.581C328.225 130.452 329.522 129.365 330.902 128.32C334.75 125.531 338.683 124.137 342.699 124.137C346.547 124.137 349.224 125.332 350.73 127.722C352.236 130.113 352.989 133.897 352.989 139.076V227.519ZM331.631 129.714C329.962 130.979 328.422 132.302 327.01 133.684V227.519C327.01 229.266 326.642 230.878 325.665 232.041C324.688 233.205 323.334 233.642 321.866 233.642H285.473C284.005 233.642 282.651 233.205 281.674 232.041C280.696 230.878 280.329 229.266 280.329 227.519V121.746C280.329 115.406 280.162 109.469 279.83 103.936L279.828 103.906L279.827 103.875C279.661 98.1333 279.412 92.6911 279.08 87.5485C278.896 85.7453 279.095 84.007 280.042 82.7187C280.999 81.4174 282.433 80.9629 283.967 80.9629H315.34C316.578 80.9629 317.721 81.3353 318.649 82.219C319.573 83.0985 320.14 84.3491 320.443 85.7919L320.453 85.8394L320.461 85.8875C320.971 89.1237 321.393 92.845 321.73 97.0458C321.864 98.1172 321.987 99.1887 322.098 100.26C323.951 98.1196 325.916 96.0037 327.992 93.9123C332.453 89.2163 337.592 85.3466 343.397 82.2977L343.41 82.2907C349.459 79.2046 356.173 77.6761 363.531 77.6761C374.998 77.6761 383.803 81.5558 389.666 89.589C395.518 97.4068 398.292 109.85 398.292 126.527V227.519C398.292 229.239 397.956 230.834 397.042 232C396.111 233.188 394.808 233.642 393.399 233.642H356.754C355.286 233.642 353.933 233.205 352.955 232.041C351.978 230.878 351.61 229.266 351.61 227.519V139.076C351.61 134.019 350.864 130.671 349.627 128.707C348.497 126.914 346.351 125.778 342.699 125.778C338.969 125.778 335.286 127.068 331.631 129.714Z" fill="#727272" fill-opacity="0.6"/>
<path fill-rule="evenodd" clip-rule="evenodd" d="M161.426 219.451C172.135 230.009 186.693 235.287 205.099 235.287C223.672 235.287 238.229 230.009 248.771 219.451C259.313 208.894 264.583 193.257 264.583 172.541V141.765C264.583 121.248 259.229 105.711 248.52 95.1539C237.978 84.5965 223.505 79.3179 205.099 79.3179C186.693 79.3179 172.135 84.5965 161.426 95.1539C150.884 105.711 145.614 121.248 145.614 141.765V172.541C145.614 193.257 150.884 208.894 161.426 219.451ZM249.404 93.8935C238.541 83.017 223.717 77.6761 205.099 77.6761C186.476 77.6761 171.573 83.019 160.546 93.8894L160.538 93.8976C149.609 104.843 144.235 120.896 144.235 141.765V172.541C144.235 193.604 149.606 209.759 160.538 220.708L160.546 220.716C171.573 231.586 186.476 236.929 205.099 236.929C223.883 236.929 238.794 231.589 249.659 220.708C260.591 209.759 265.962 193.604 265.962 172.541V141.765C265.962 120.89 260.501 104.836 249.404 93.8935ZM216.895 186.286C214.385 189.672 210.453 191.365 205.099 191.365C199.911 191.365 195.979 189.672 193.302 186.286C190.792 182.899 189.537 177.023 189.537 168.657V145.949C189.537 137.582 190.792 131.706 193.302 128.32C195.979 124.934 199.911 123.24 205.099 123.24C210.453 123.24 214.385 124.934 216.895 128.32C219.405 131.706 220.66 137.582 220.66 145.949V168.657C220.66 177.023 219.405 182.899 216.895 186.286ZM194.322 129.426C196.661 126.479 200.172 124.882 205.099 124.882C210.225 124.882 213.707 126.499 215.861 129.406C218.024 132.325 219.281 137.68 219.281 145.949V168.657C219.281 176.925 218.024 182.281 215.861 185.199C213.707 188.106 210.225 189.723 205.099 189.723C200.172 189.723 196.661 188.126 194.321 185.18C192.167 182.257 190.916 176.906 190.916 168.657V145.949C190.916 137.699 192.167 132.349 194.322 129.426Z" fill="#727272" fill-opacity="0.6"/>
<path fill-rule="evenodd" clip-rule="evenodd" d="M17.6867 220.049C27.7263 230.208 44.0407 235.287 66.6299 235.287C89.0518 235.287 105.283 230.706 115.322 221.543C125.362 212.181 130.465 198.237 130.633 179.712C130.8 170.549 129.88 162.581 127.872 155.809C125.864 149.036 122.434 142.961 117.581 137.582C112.896 132.204 106.286 127.125 97.7528 122.344L64.622 103.819C61.6101 102.225 59.1838 100.731 57.3432 99.3369C55.5026 97.7434 54.164 96.1498 53.3274 94.5563C52.4908 92.9627 52.0724 91.2695 52.0724 89.4768C52.0724 85.4929 53.2437 82.505 55.5863 80.513C58.0962 78.5211 61.7774 77.5251 66.6299 77.5251C72.1517 77.5251 76.2512 79.2183 78.9285 82.6046C81.773 85.7917 83.028 89.4768 82.6933 93.6599C82.526 95.2534 82.777 96.5482 83.4463 97.5442C84.1156 98.341 85.0359 98.7393 86.2072 98.7393H123.605C125.78 98.7393 127.035 97.0462 127.37 93.6599C128.876 73.342 124.442 58.2032 114.067 48.2435C103.693 38.0845 87.4622 33.005 65.375 33.005C45.6303 33.005 30.9055 37.7857 21.2005 47.3471C11.6629 56.9084 6.81038 70.3541 6.64305 87.684C6.64305 96.6478 7.56335 104.616 9.40396 111.587C11.4119 118.36 14.7584 124.435 19.4436 129.814C24.2961 135.192 30.9055 140.271 39.2719 145.052L72.6537 163.876C75.8329 165.47 78.2592 167.063 79.9324 168.657C81.773 170.25 83.1117 171.844 83.9483 173.437C84.7849 174.832 85.2032 176.425 85.2032 178.218C85.2032 182.401 83.781 185.389 80.9364 187.182C78.2592 188.775 73.7413 189.572 67.3829 189.572C61.1918 189.572 56.5903 187.979 53.5784 184.792C50.7338 181.604 49.4789 177.421 49.8135 172.242C49.9808 169.454 48.8932 168.059 46.5506 168.059H9.40396C7.06137 168.059 5.72275 169.553 5.3881 172.541C3.71483 194.054 7.81435 209.89 17.6867 220.049ZM54.5091 183.58C52.0166 180.778 50.8822 177.109 51.1885 172.368L51.1891 172.359C51.2871 170.726 51.0393 169.149 50.1339 167.988C49.2277 166.826 47.9253 166.417 46.5506 166.417H9.40396C7.98298 166.417 6.68981 166.877 5.69985 167.982C4.72402 169.071 4.21465 170.596 4.02112 172.324L4.01746 172.357L4.0149 172.39C2.31785 194.208 6.45524 210.662 16.7848 221.291L16.7935 221.3C27.2073 231.838 43.9269 236.929 66.6299 236.929C89.1471 236.929 105.756 232.343 116.161 222.846L116.173 222.835C126.613 213.1 131.839 198.636 132.012 179.738C132.181 170.433 131.248 162.263 129.172 155.262C127.084 148.22 123.524 141.929 118.53 136.39C113.699 130.849 106.949 125.681 98.34 120.858L65.1952 102.326L65.1821 102.319C62.2249 100.754 59.8778 99.3065 58.1199 97.9793C56.3832 96.4702 55.2034 95.032 54.4968 93.6862C53.7903 92.3403 53.4515 90.9467 53.4515 89.4768C53.4515 85.9355 54.4639 83.4949 56.3699 81.8643C58.5542 80.1403 61.9119 79.1668 66.6299 79.1668C71.932 79.1668 75.6003 80.7903 77.9242 83.7297L77.9529 83.766L77.9833 83.8001C80.5503 86.6762 81.6058 89.8715 81.3222 93.4821C81.1267 95.385 81.415 97.1495 82.3694 98.5698L82.4172 98.6408L82.4712 98.7051C83.4576 99.8794 84.7622 100.381 86.2072 100.381H123.605C125.024 100.381 126.283 99.8091 127.212 98.5557C128.097 97.3606 128.555 95.7177 128.739 93.8517L128.742 93.828L128.743 93.8042C130.277 73.1187 125.768 57.3706 114.938 46.97C104.201 36.4603 87.5873 31.3633 65.375 31.3633C45.4815 31.3633 30.3798 36.1726 20.3213 46.0823L20.3122 46.0913C10.415 56.0131 5.43516 69.9461 5.26407 87.6652L5.26398 87.684C5.26398 96.7784 6.19741 104.917 8.08833 112.08L8.09552 112.107L8.1035 112.134C10.1883 119.166 13.6593 125.454 18.4863 130.996L18.495 131.006L18.5039 131.015C23.4899 136.542 30.2293 141.706 38.6751 146.532L38.6815 146.536L72.0907 165.375L72.1185 165.389C75.2426 166.955 77.5385 168.479 79.0709 169.939L79.0957 169.962L79.1213 169.984C80.8769 171.504 82.0676 172.953 82.7788 174.308L82.8014 174.35L82.8261 174.392C83.4876 175.494 83.8242 176.751 83.8242 178.218C83.8242 180.087 83.5073 181.588 82.9367 182.787C82.3721 183.973 81.5153 184.956 80.3051 185.722C77.934 187.126 73.7029 187.931 67.3829 187.931C61.3663 187.931 57.164 186.379 54.5091 183.58Z" fill="#727272" fill-opacity="0.6"/>
<path d="M550.453 234.772C548.445 234.772 547.19 233.577 546.688 231.186C546.186 228.397 545.684 225.011 545.182 221.027C544.681 216.844 544.262 212.562 543.928 208.179L540.163 195.929V133.481C540.163 127.904 539.326 124.119 537.653 122.127C536.147 119.936 533.219 118.84 528.868 118.84C521.004 118.84 517.406 123.322 518.075 132.286C518.41 135.274 517.239 136.768 514.562 136.768H481.682C479.506 136.768 478.252 135.274 477.917 132.286C476.746 115.554 480.594 103.004 489.462 94.6382C498.331 86.272 512.052 82.0889 530.625 82.0889C549.533 82.0889 563.17 86.3716 571.537 94.9369C579.903 103.303 584.086 117.048 584.086 136.17V195.63C584.086 202.004 584.17 207.98 584.337 213.557C584.504 218.936 584.755 224.414 585.09 229.991C585.425 233.178 584.337 234.772 581.827 234.772H550.453ZM504.271 238.058C494.231 238.058 486.367 234.373 480.678 227.003C475.156 219.633 472.395 209.275 472.395 195.929C472.395 185.77 473.901 177.503 476.913 171.129C480.092 164.556 485.279 159.476 492.474 155.891C499.669 152.106 509.374 149.516 521.589 148.122L543.426 145.433L543.175 170.531L529.872 172.025C524.016 172.822 519.916 174.515 517.573 177.105C515.231 179.694 514.06 183.579 514.06 188.758C514.06 193.14 514.729 196.327 516.068 198.319C517.406 200.112 519.581 201.008 522.593 201.008C526.442 201.008 530.039 199.713 533.386 197.124C536.9 194.335 540.581 190.152 544.43 184.575L547.692 210.271C541.669 217.641 535.394 224.115 528.868 229.692C522.342 235.27 514.143 238.058 504.271 238.058Z" fill="#FBFBFB"/>
<path d="M417.206 234.772C414.864 234.772 413.693 233.278 413.693 230.29V89.8575C413.693 86.8696 414.864 85.3756 417.206 85.3756H454.102C456.445 85.3756 457.616 86.8696 457.616 89.8575V230.29C457.616 233.278 456.445 234.772 454.102 234.772H417.206ZM435.529 70.436C428.334 70.436 422.645 68.2449 418.461 63.8626C414.278 59.4803 412.187 53.7036 412.187 46.5326V39.6604C412.187 31.8918 414.278 26.0155 418.461 22.0317C422.645 17.8486 428.334 15.757 435.529 15.757C442.891 15.757 448.58 17.8486 452.596 22.0317C456.612 26.0155 458.62 31.8918 458.62 39.6604V46.5326C458.62 53.7036 456.612 59.4803 452.596 63.8626C448.58 68.2449 442.891 70.436 435.529 70.436Z" fill="#FBFBFB"/>
<path d="M353.439 234.772C350.929 234.772 349.674 233.278 349.674 230.29V141.847C349.674 136.668 348.921 132.884 347.415 130.493C345.909 128.103 343.232 126.908 339.384 126.908C335.368 126.908 331.436 128.302 327.587 131.091C323.906 133.88 320.81 136.967 318.3 140.353L314.034 111.371C317.38 106.789 321.229 102.307 325.579 97.9249C329.93 93.3434 334.949 89.5587 340.639 86.5708C346.495 83.5828 353.021 82.0889 360.216 82.0889C371.427 82.0889 379.793 85.8736 385.315 93.443C390.837 100.813 393.598 112.765 393.598 129.298V230.29C393.598 233.278 392.426 234.772 390.084 234.772H353.439ZM282.158 234.772C279.648 234.772 278.393 233.278 278.393 230.29V124.517C278.393 118.143 278.225 112.167 277.891 106.59C277.723 100.813 277.472 95.3353 277.138 90.1563C276.803 86.9691 277.974 85.3756 280.652 85.3756H312.026C314.034 85.3756 315.288 86.5708 315.79 88.9611C316.292 92.1482 316.711 95.8333 317.045 100.016C317.547 104 317.882 107.984 318.049 111.968L322.316 130.493V230.29C322.316 233.278 321.061 234.772 318.551 234.772H282.158Z" fill="#FBFBFB"/>
<path d="M201.784 238.058C183.378 238.058 168.82 232.78 158.111 222.222C147.57 211.665 142.299 196.028 142.299 175.312V144.536C142.299 124.019 147.57 108.482 158.111 97.9249C168.82 87.3675 183.378 82.0889 201.784 82.0889C220.19 82.0889 234.663 87.3675 245.205 97.9249C255.914 108.482 261.268 124.019 261.268 144.536V175.312C261.268 196.028 255.998 211.665 245.456 222.222C234.914 232.78 220.357 238.058 201.784 238.058ZM201.784 194.136C207.138 194.136 211.07 192.443 213.58 189.057C216.09 185.67 217.345 179.794 217.345 171.428V148.72C217.345 140.353 216.09 134.477 213.58 131.091C211.07 127.704 207.138 126.011 201.784 126.011C196.596 126.011 192.664 127.704 189.987 131.091C187.477 134.477 186.222 140.353 186.222 148.72V171.428C186.222 179.794 187.477 185.67 189.987 189.057C192.664 192.443 196.596 194.136 201.784 194.136Z" fill="#FBFBFB"/>
<path d="M63.315 238.059C40.7258 238.059 24.4114 232.979 14.3717 222.82C4.49939 212.661 0.39987 196.825 2.07314 175.312C2.4078 172.324 3.74642 170.83 6.089 170.83H43.2357C45.5783 170.83 46.6659 172.225 46.4986 175.013C46.1639 180.192 47.4189 184.376 50.2634 187.563C53.2753 190.75 57.8768 192.343 64.0679 192.343C70.4264 192.343 74.9442 191.547 77.6215 189.953C80.466 188.16 81.8883 185.172 81.8883 180.989C81.8883 179.196 81.47 177.603 80.6334 176.209C79.7967 174.615 78.4581 173.021 76.6175 171.428C74.9442 169.834 72.518 168.241 69.3388 166.647L35.9569 147.823C27.5906 143.043 20.9811 137.963 16.1286 132.585C11.4435 127.207 8.09693 121.131 6.089 114.358C4.2484 107.387 3.3281 99.4189 3.3281 90.4551C3.49543 73.1252 8.34792 59.6795 17.8856 50.1181C27.5906 40.5568 42.3154 35.7761 62.06 35.7761C84.1472 35.7761 100.378 40.8556 110.752 51.0145C121.127 60.9743 125.561 76.1131 124.055 96.431C123.72 99.8173 122.465 101.51 120.29 101.51H82.8923C81.721 101.51 80.8007 101.112 80.1314 100.315C79.4621 99.3193 79.2111 98.0245 79.3784 96.431C79.7131 92.2479 78.4581 88.5628 75.6135 85.3756C72.9363 81.9893 68.8368 80.2962 63.315 80.2962C58.4625 80.2962 54.7813 81.2921 52.2714 83.2841C49.9288 85.276 48.7575 88.264 48.7575 92.2479C48.7575 94.0406 49.1758 95.7338 50.0124 97.3273C50.8491 98.9209 52.1877 100.514 54.0283 102.108C55.8689 103.502 58.2952 104.996 61.3071 106.59L94.4379 125.115C102.972 129.896 109.581 134.975 114.266 140.353C119.119 145.732 122.549 151.807 124.557 158.58C126.565 165.352 127.485 173.32 127.318 182.483C127.15 201.008 122.047 214.952 112.007 224.314C101.968 233.477 85.7368 238.059 63.315 238.059Z" fill="#FBFBFB"/>
<path fill-rule="evenodd" clip-rule="evenodd" d="M546.688 231.186C547.19 233.577 548.445 234.772 550.453 234.772H581.827C584.337 234.772 585.425 233.178 585.09 229.991C584.755 224.414 584.504 218.936 584.337 213.558C584.17 207.98 584.086 202.004 584.086 195.63V136.17C584.086 117.048 579.903 103.303 571.537 94.937C563.17 86.3716 549.533 82.0889 530.625 82.0889C512.052 82.0889 498.331 86.272 489.462 94.6382C480.594 103.004 476.746 115.554 477.917 132.286C478.252 135.274 479.506 136.768 481.682 136.768H514.562C517.239 136.768 518.41 135.274 518.075 132.286C517.406 123.322 521.004 118.84 528.868 118.84C533.219 118.84 536.147 119.936 537.653 122.127C539.326 124.119 540.163 127.904 540.163 133.481V145.835L521.589 148.122C509.374 149.516 499.669 152.106 492.474 155.891C485.279 159.476 480.092 164.556 476.913 171.129C473.901 177.503 472.395 185.77 472.395 195.929C472.395 209.275 475.156 219.633 480.678 227.003C486.367 234.373 494.231 238.059 504.271 238.059C514.143 238.059 522.342 235.27 528.868 229.692C533.785 225.49 538.559 220.779 543.191 215.559C543.608 215.089 544.025 214.614 544.44 214.135C544.505 214.82 544.573 215.501 544.643 216.181C544.811 217.811 544.99 219.426 545.182 221.027C545.684 225.011 546.186 228.398 546.688 231.186ZM540.163 170.87L529.872 172.025C524.016 172.822 519.916 174.515 517.573 177.105C515.231 179.694 514.06 183.579 514.06 188.758C514.06 193.14 514.729 196.327 516.068 198.319C517.406 200.112 519.581 201.008 522.593 201.008C526.442 201.008 530.039 199.714 533.386 197.124C535.143 195.729 536.942 193.986 538.784 191.894C539.241 191.374 539.7 190.833 540.163 190.271V170.87ZM538.784 189.597V172.674L530.029 173.657C530.024 173.657 530.019 173.658 530.015 173.658C524.244 174.445 520.52 176.088 518.512 178.308C516.541 180.487 515.439 183.864 515.439 188.758C515.439 192.979 516.089 195.698 517.122 197.26C518.096 198.541 519.801 199.367 522.593 199.367C526.162 199.367 529.498 198.172 532.628 195.752C534.604 194.183 536.657 192.135 538.784 189.597ZM543.4 217.579C538.956 222.519 534.381 227.002 529.672 231.026C522.863 236.846 514.365 239.7 504.271 239.7C493.927 239.7 485.663 235.888 479.662 228.114L479.649 228.096C473.833 220.333 471.016 209.535 471.016 195.929C471.016 185.592 472.546 177.021 475.711 170.324L475.718 170.31C479.077 163.364 484.526 158.075 491.929 154.382C499.311 150.503 509.172 147.891 521.452 146.488C521.454 146.488 521.456 146.488 521.458 146.488L538.784 144.354V133.481C538.784 127.967 537.933 124.783 536.678 123.288C536.663 123.27 536.648 123.252 536.633 123.233C536.617 123.211 536.601 123.189 536.585 123.167C535.493 121.577 533.126 120.482 528.868 120.482C525.122 120.482 522.7 121.553 521.269 123.336C519.854 125.099 519.137 127.897 519.446 132.106C519.635 133.837 519.43 135.526 518.456 136.768C517.494 137.994 516.072 138.41 514.562 138.41H481.682C480.316 138.41 479.076 137.93 478.134 136.808C477.218 135.718 476.741 134.206 476.55 132.503C476.547 132.476 476.544 132.449 476.543 132.422C475.344 115.296 479.285 102.145 488.606 93.3515C497.831 84.6488 511.925 80.4472 530.625 80.4472C549.642 80.4472 563.685 84.7398 572.428 93.6841C581.227 102.487 585.465 116.799 585.465 136.17V195.63C585.465 201.987 585.549 207.942 585.715 213.497C585.881 218.842 586.131 224.288 586.463 229.833C586.644 231.609 586.474 233.325 585.596 234.612C584.688 235.942 583.302 236.414 581.827 236.414H550.453C549.216 236.414 548.072 236.041 547.145 235.157C546.221 234.278 545.654 233.027 545.351 231.584C545.348 231.573 545.346 231.562 545.344 231.551L545.34 231.53C544.83 228.698 544.323 225.276 543.819 221.271L543.817 221.26C543.671 220.041 543.532 218.814 543.4 217.579Z" fill="#727272" fill-opacity="0.5"/>
<path fill-rule="evenodd" clip-rule="evenodd" d="M413.563 234.771C412.649 233.605 412.314 232.01 412.314 230.29V89.8575C412.314 88.1376 412.649 86.5419 413.563 85.3759C414.494 84.1886 415.797 83.7339 417.207 83.7339H454.102C455.511 83.7339 456.815 84.1886 457.746 85.3759C458.66 86.5419 458.995 88.1376 458.995 89.8575V230.29C458.995 232.01 458.66 233.605 457.746 234.771C456.815 235.959 455.511 236.413 454.102 236.413H417.207C415.797 236.413 414.494 235.959 413.563 234.771ZM435.529 72.0777C428.099 72.0777 422.052 69.8104 417.55 65.095C413.044 60.3737 410.808 54.1323 410.808 46.5326V39.6604C410.808 31.521 413.014 25.1252 417.587 20.7619C422.087 16.2695 428.12 14.1153 435.529 14.1153C443.091 14.1153 449.144 16.2622 453.492 20.7829C457.89 25.1539 459.999 31.544 459.999 39.6604V46.5326C459.999 54.1097 457.861 60.3447 453.528 65.0728C449.18 69.8179 443.113 72.0777 435.529 72.0777ZM418.461 22.0317C414.278 26.0156 412.187 31.8918 412.187 39.6604V46.5326C412.187 53.7036 414.278 59.4803 418.461 63.8626C422.645 68.2449 428.334 70.436 435.529 70.436C442.891 70.436 448.58 68.2449 452.596 63.8626C456.612 59.4803 458.62 53.7036 458.62 46.5326V39.6604C458.62 31.8918 456.612 26.0156 452.596 22.0317C448.58 17.8486 442.891 15.757 435.529 15.757C428.334 15.757 422.645 17.8486 418.461 22.0317ZM413.693 230.29C413.693 233.278 414.864 234.772 417.207 234.772H454.102C456.445 234.772 457.616 233.278 457.616 230.29V89.8575C457.616 86.8696 456.445 85.3756 454.102 85.3756H417.207C414.864 85.3756 413.693 86.8696 413.693 89.8575V230.29Z" fill="#727272" fill-opacity="0.5"/>
<path fill-rule="evenodd" clip-rule="evenodd" d="M349.674 230.29C349.674 233.278 350.929 234.772 353.439 234.772H390.084C392.426 234.772 393.598 233.278 393.598 230.29V129.298C393.598 112.765 390.837 100.813 385.315 93.443C379.793 85.8736 371.427 82.0889 360.216 82.0889C353.021 82.0889 346.495 83.5829 340.638 86.5708C334.949 89.5587 329.929 93.3434 325.579 97.9249C323.234 100.287 321.035 102.678 318.982 105.098C318.556 105.6 318.136 106.103 317.723 106.607C317.667 105.902 317.605 105.197 317.539 104.492C317.398 103 317.233 101.508 317.045 100.016C316.711 95.8334 316.292 92.1483 315.79 88.9611C315.288 86.5708 314.033 85.3756 312.025 85.3756H280.652C277.974 85.3756 276.803 86.9692 277.138 90.1563C277.472 95.3354 277.723 100.813 277.891 106.59C278.225 112.167 278.393 118.143 278.393 124.517V230.29C278.393 233.278 279.648 234.772 282.157 234.772H318.551C321.061 234.772 322.316 233.278 322.316 230.29V135.687C322.763 135.236 323.223 134.791 323.695 134.352C324.91 133.223 326.207 132.136 327.587 131.091C331.435 128.302 335.368 126.908 339.383 126.908C343.232 126.908 345.909 128.103 347.415 130.493C348.921 132.884 349.674 136.668 349.674 141.847V230.29ZM328.315 132.485C326.647 133.75 325.107 135.073 323.695 136.455V230.29C323.695 232.037 323.327 233.649 322.35 234.812C321.373 235.976 320.019 236.414 318.551 236.414H282.157C280.69 236.414 279.336 235.976 278.359 234.812C277.381 233.649 277.014 232.037 277.014 230.29V124.517C277.014 118.177 276.847 112.24 276.515 106.707C276.514 106.687 276.513 106.667 276.512 106.646C276.346 100.904 276.097 95.4622 275.765 90.3196C275.581 88.5163 275.78 86.778 276.727 85.4897C277.684 84.1884 279.118 83.7339 280.652 83.7339H312.025C313.263 83.7339 314.406 84.1064 315.334 84.9901C316.258 85.8696 316.825 87.1201 317.128 88.563C317.132 88.581 317.135 88.5991 317.139 88.6172C317.141 88.631 317.144 88.6448 317.146 88.6586C317.655 91.8948 318.078 95.616 318.415 99.8169C318.549 100.888 318.672 101.96 318.783 103.031C320.636 100.891 322.601 98.7747 324.677 96.6833C329.138 91.9874 334.277 88.1176 340.082 85.0688L340.095 85.0617C346.144 81.9757 352.858 80.4472 360.216 80.4472C371.683 80.4472 380.488 84.3269 386.351 92.3601C392.203 100.178 394.977 112.621 394.977 129.298V230.29C394.977 232.01 394.641 233.606 393.727 234.771C392.796 235.959 391.493 236.414 390.084 236.414H353.439C351.971 236.414 350.617 235.976 349.64 234.812C348.663 233.649 348.295 232.037 348.295 230.29V141.847C348.295 136.79 347.549 133.442 346.312 131.478C345.182 129.685 343.036 128.549 339.383 128.549C335.654 128.549 331.971 129.839 328.315 132.485Z" fill="#727272" fill-opacity="0.5"/>
<path fill-rule="evenodd" clip-rule="evenodd" d="M158.111 222.223C168.82 232.78 183.378 238.059 201.784 238.059C220.357 238.059 234.914 232.78 245.456 222.223C255.998 211.665 261.268 196.028 261.268 175.312V144.537C261.268 124.019 255.914 108.482 245.205 97.9249C234.663 87.3676 220.19 82.0889 201.784 82.0889C183.378 82.0889 168.82 87.3676 158.111 97.9249C147.569 108.482 142.299 124.019 142.299 144.537V175.312C142.299 196.028 147.569 211.665 158.111 222.223ZM246.089 96.6646C235.226 85.7881 220.402 80.4472 201.784 80.4472C183.161 80.4472 168.258 85.7901 157.231 96.6604L157.223 96.6686C146.294 107.614 140.92 123.667 140.92 144.537V175.312C140.92 196.375 146.291 212.53 157.223 223.479L157.231 223.487C168.258 234.357 183.161 239.7 201.784 239.7C220.568 239.7 235.479 234.36 246.344 223.479C257.276 212.53 262.647 196.375 262.647 175.312V144.537C262.647 123.661 257.186 107.607 246.089 96.6646ZM213.58 189.057C211.07 192.443 207.138 194.136 201.784 194.136C196.596 194.136 192.664 192.443 189.987 189.057C187.477 185.67 186.222 179.794 186.222 171.428V148.72C186.222 140.353 187.477 134.477 189.987 131.091C192.664 127.705 196.596 126.011 201.784 126.011C207.138 126.011 211.07 127.705 213.58 131.091C216.09 134.477 217.345 140.353 217.345 148.72V171.428C217.345 179.794 216.09 185.67 213.58 189.057ZM191.007 132.197C193.346 129.25 196.857 127.653 201.784 127.653C206.91 127.653 210.392 129.27 212.546 132.177C214.709 135.096 215.966 140.452 215.966 148.72V171.428C215.966 179.696 214.709 185.052 212.546 187.97C210.392 190.877 206.91 192.494 201.784 192.494C196.857 192.494 193.346 190.897 191.006 187.951C188.852 185.028 187.601 179.677 187.601 171.428V148.72C187.601 140.47 188.852 135.12 191.007 132.197Z" fill="#727272" fill-opacity="0.5"/>
<path fill-rule="evenodd" clip-rule="evenodd" d="M14.3716 222.82C24.4113 232.979 40.7257 238.058 63.3149 238.058C85.7367 238.058 101.967 233.477 112.007 224.314C122.047 214.952 127.15 201.008 127.318 182.483C127.485 173.32 126.565 165.352 124.557 158.58C122.549 151.807 119.119 145.732 114.266 140.353C109.581 134.975 102.971 129.896 94.4378 125.115L61.307 106.59C58.2951 104.996 55.8688 103.502 54.0282 102.108C52.1876 100.514 50.849 98.9209 50.0124 97.3273C49.1757 95.7337 48.7574 94.0406 48.7574 92.2478C48.7574 88.2639 49.9287 85.276 52.2713 83.2841C54.7812 81.2921 58.4624 80.2961 63.3149 80.2961C68.8367 80.2961 72.9362 81.9893 75.6134 85.3756C78.458 88.5627 79.713 92.2478 79.3783 96.4309C79.211 98.0245 79.462 99.3193 80.1313 100.315C80.8006 101.112 81.7209 101.51 82.8922 101.51H120.29C122.465 101.51 123.72 99.8172 124.055 96.4309C125.561 76.1131 121.126 60.9742 110.752 51.0145C100.378 40.8556 84.1471 35.7761 62.0599 35.7761C42.3153 35.7761 27.5905 40.5568 17.8855 50.1181C8.34784 59.6795 3.49535 73.1251 3.32802 90.4551C3.32802 99.4188 4.24832 107.387 6.08892 114.358C8.09685 121.131 11.4434 127.207 16.1286 132.585C20.9811 137.963 27.5905 143.043 35.9569 147.823L69.3387 166.647C72.5179 168.241 74.9441 169.834 76.6174 171.428C78.458 173.021 79.7966 174.615 80.6333 176.208C81.4699 177.603 81.8882 179.196 81.8882 180.989C81.8882 185.172 80.4659 188.16 77.6214 189.953C74.9441 191.547 70.4263 192.343 64.0679 192.343C57.8767 192.343 53.2752 190.75 50.2633 187.563C47.4188 184.375 46.1638 180.192 46.4985 175.013C46.6658 172.225 45.5782 170.83 43.2356 170.83H6.08892C3.74634 170.83 2.40772 172.324 2.07307 175.312C0.399792 196.825 4.49931 212.661 14.3716 222.82ZM51.1941 186.351C48.7015 183.549 47.5672 179.88 47.8735 175.139L47.874 175.13C47.9721 173.497 47.7243 171.92 46.8188 170.759C45.9126 169.597 44.6102 169.188 43.2356 169.188H6.08892C4.66795 169.188 3.37477 169.648 2.38482 170.753C1.40898 171.842 0.899617 173.367 0.706092 175.095C0.703648 175.117 0.701573 175.139 0.699868 175.161C-0.997179 196.979 3.14021 213.433 13.4697 224.062L13.4785 224.071C23.8923 234.609 40.6118 239.7 63.3149 239.7C85.832 239.7 102.441 235.114 112.846 225.617L112.858 225.606C123.298 215.871 128.524 201.407 128.697 182.509C128.866 173.204 127.933 165.034 125.857 158.033C123.769 150.991 120.209 144.7 115.214 139.161C110.384 133.62 103.634 128.452 95.025 123.63L95.0241 123.629L61.8933 105.104L61.867 105.09C58.9099 103.525 56.5627 102.078 54.8049 100.75C53.0681 99.2413 51.8884 97.803 51.1818 96.4572C50.4752 95.1114 50.1365 93.7177 50.1365 92.2478C50.1365 88.7066 51.1489 86.2659 53.0548 84.6353C55.2392 82.9113 58.5969 81.9379 63.3149 81.9379C68.617 81.9379 72.2853 83.5613 74.6092 86.5008C74.6283 86.5249 74.648 86.5484 74.6683 86.5711C77.2353 89.4473 78.2907 92.6426 78.0072 96.2532C77.8116 98.156 78.1 99.9206 79.0544 101.341C79.0862 101.388 79.1202 101.433 79.1561 101.476C80.1426 102.65 81.4472 103.152 82.8922 103.152H120.29C121.709 103.152 122.968 102.58 123.897 101.327C124.782 100.132 125.24 98.4887 125.424 96.6227C125.426 96.6069 125.427 96.5911 125.428 96.5752C126.962 75.8897 122.453 60.1416 111.623 49.7411C100.886 39.2313 84.2722 34.1344 62.0599 34.1344C42.1664 34.1344 27.0648 38.9437 17.0062 48.8534L17.0062 48.8533L16.9972 48.8623C7.09995 58.7842 2.12012 72.7172 1.94904 90.4362H1.94895V90.4551C1.94895 99.5495 2.88238 107.688 4.7733 114.851C4.77809 114.869 4.78315 114.887 4.78847 114.905C6.87328 121.937 10.3442 128.225 15.1713 133.767L15.1888 133.786C20.1748 139.313 26.9143 144.477 35.3601 149.303L35.3665 149.307L68.7483 168.131C68.7665 168.141 68.7849 168.151 68.8035 168.16C71.9275 169.726 74.2235 171.25 75.7559 172.71C75.7626 172.716 75.7692 172.722 75.776 172.729C75.786 172.738 75.7961 172.747 75.8063 172.756C77.5619 174.275 78.7526 175.724 79.4638 177.079C79.4788 177.107 79.4946 177.135 79.5111 177.163C80.1726 178.265 80.5091 179.522 80.5091 180.989C80.5091 182.859 80.1922 184.359 79.6217 185.558C79.0571 186.744 78.2003 187.727 76.9901 188.493C74.6189 189.898 70.3879 190.702 64.0679 190.702C58.0512 190.702 53.849 189.15 51.1941 186.351Z" fill="#727272" fill-opacity="0.5"/>
</svg>
